<?xml version="1.0" encoding="UTF-8"?>
<svg id="Layer_4" data-name="Layer 4" xmlns="http://www.w3.org/2000/svg" xmlns:xlink="http://www.w3.org/1999/xlink" viewBox="0 0 612 792">
  <defs>
    <style>
      .cls-1 {
        letter-spacing: -.022969258576679em;
      }

      .cls-2 {
        fill: url(#linear-gradient-12);
      }

      .cls-2, .cls-3, .cls-4, .cls-5, .cls-6, .cls-7, .cls-8, .cls-9, .cls-10, .cls-11, .cls-12, .cls-13, .cls-14, .cls-15, .cls-16, .cls-17 {
        stroke-width: 0px;
      }

      .cls-18 {
        letter-spacing: -.020006180963679em;
      }

      .cls-3 {
        fill: url(#linear-gradient);
      }

      .cls-19 {
        letter-spacing: -.037979301375374em;
      }

      .cls-4 {
        fill: url(#linear-gradient-6);
      }

      .cls-20 {
        letter-spacing: -.082987801467717em;
      }

      .cls-21 {
        letter-spacing: -.023012515184168em;
      }

      .cls-5 {
        fill: url(#linear-gradient-15);
      }

      .cls-6 {
        fill: url(#linear-gradient-11);
      }

      .cls-7 {
        fill: url(#linear-gradient-5);
      }

      .cls-22 {
        fill: #6d6e71;
        font-family: Montserrat-Bold, Montserrat;
        font-size: 59.714550018310547px;
        font-weight: 700;
      }

      .cls-8 {
        fill: url(#linear-gradient-13);
      }

      .cls-9 {
        fill: url(#linear-gradient-14);
      }

      .cls-10 {
        fill: url(#linear-gradient-2);
      }

      .cls-11 {
        fill: url(#linear-gradient-7);
      }

      .cls-12 {
        fill: url(#linear-gradient-3);
      }

      .cls-13 {
        fill: url(#linear-gradient-9);
      }

      .cls-23 {
        fill: #808285;
        font-family: Montserrat-Medium, Montserrat;
        font-size: 22.576030731201172px;
        font-weight: 500;
      }

      .cls-14 {
        fill: url(#linear-gradient-8);
      }

      .cls-24 {
        letter-spacing: .005993684221689em;
      }

      .cls-25 {
        letter-spacing: -.019984552659935em;
      }

      .cls-15 {
        fill: url(#linear-gradient-10);
      }

      .cls-16 {
        fill: url(#linear-gradient-4);
      }

      .cls-17 {
        fill: #f9f7f5;
      }

      .cls-26 {
        letter-spacing: -.008002472385472em;
      }
    </style>
    <linearGradient id="linear-gradient" x1="207.020511469201665" y1="343.41923276408852" x2="263.302767565295653" y2="343.41923276408852" gradientUnits="userSpaceOnUse">
      <stop offset="0" stop-color="#a64c9d"/>
      <stop offset=".999999829510737" stop-color="#529bd4"/>
    </linearGradient>
    <linearGradient id="linear-gradient-2" x1="318.993718451469249" y1="365.72226052354381" x2="341.917330553575084" y2="365.72226052354381" gradientUnits="userSpaceOnUse">
      <stop offset=".323294932072723" stop-color="#a64c9d"/>
      <stop offset=".468957764480241" stop-color="#984e9e"/>
      <stop offset=".740955586041483" stop-color="#7454a3"/>
      <stop offset="1" stop-color="#4d5ba9"/>
    </linearGradient>
    <linearGradient id="linear-gradient-3" x1="331.600741941614615" y1="361.536514953721053" x2="397.675560579409648" y2="361.536514953721053" xlink:href="#linear-gradient-2"/>
    <linearGradient id="linear-gradient-4" x1="221.043882215712074" y1="348.172014387911986" x2="344.510531237168834" y2="348.172014387911986" gradientUnits="userSpaceOnUse">
      <stop offset="0" stop-color="#4d5ba9"/>
      <stop offset=".323294932072723" stop-color="#a64c9d"/>
    </linearGradient>
    <linearGradient id="linear-gradient-5" x1="273.048006823108153" y1="332.384149112685918" x2="380.514925768418834" y2="332.384149112685918" xlink:href="#linear-gradient-2"/>
    <linearGradient id="linear-gradient-6" x1="305.715405911650123" y1="325.010865920739889" x2="411.137990576306947" y2="325.010865920739889" xlink:href="#linear-gradient-2"/>
    <linearGradient id="linear-gradient-7" x1="366.733919909043834" y1="326.543702173934435" x2="396.010409166856334" y2="326.543702173934435" xlink:href="#linear-gradient-2"/>
    <linearGradient id="linear-gradient-8" x1="343.170382311387584" y1="352.7136142688978" x2="397.671236803575084" y2="352.7136142688978" xlink:href="#linear-gradient-2"/>
    <linearGradient id="linear-gradient-9" x1="309.116120579172275" y1="363.044549498510605" x2="330.160311510606334" y2="363.044549498510605" gradientUnits="userSpaceOnUse">
      <stop offset="0" stop-color="#ea602a"/>
      <stop offset=".999999659021474" stop-color="#f0d192"/>
    </linearGradient>
    <linearGradient id="linear-gradient-10" x1="227.586764147326903" y1="315.500416058368501" x2="293.901461412951903" y2="315.500416058368501" gradientUnits="userSpaceOnUse">
      <stop offset="0" stop-color="#529bd4"/>
      <stop offset="1" stop-color="#a64c9d"/>
    </linearGradient>
    <linearGradient id="linear-gradient-11" x1="265.248568346545653" y1="314.25070290635631" x2="296.308039020414981" y2="314.25070290635631" gradientUnits="userSpaceOnUse">
      <stop offset="0" stop-color="#f0d192"/>
      <stop offset="1" stop-color="#ea602a"/>
    </linearGradient>
    <linearGradient id="linear-gradient-12" x1="331.697794881833033" y1="341.539970278337933" x2="376.13020433512429" y2="341.539970278337933" gradientUnits="userSpaceOnUse">
      <stop offset="0" stop-color="#8fc9e7"/>
      <stop offset=".999999829510737" stop-color="#529bd4"/>
    </linearGradient>
    <linearGradient id="linear-gradient-13" x1="255.914278795764403" y1="356.100037623153185" x2="259.037874987170653" y2="356.100037623153185" xlink:href="#linear-gradient-12"/>
    <linearGradient id="linear-gradient-14" x1="230.248158601940304" y1="337.773417594147759" x2="268.622033110341363" y2="337.773417594147759" xlink:href="#linear-gradient-12"/>
    <linearGradient id="linear-gradient-15" x1="246.437035679340624" y1="357.287748541442852" x2="253.327494498633314" y2="357.287748541442852" xlink:href="#linear-gradient-12"/>
  </defs>
  <g>
    <g>
      <path class="cls-3" d="M221.685763170764403,342.243653345809435c-.32080078125-4.406311035152612.22686767578125-9.8052978515625,3.12701416015625-15.236572265625,5.822265625-10.9036865234375,17.9649658203125-15.796447753902612,28.59259033203125-14.962951660152612.00897216796875.000732421875.01727294921875.002380371090112.0262451171875.003112792965112-7.7657470703125-6.68218994140625-16.49310302734375-9.4874267578125-25.8448486328125-9.0888671875-9.651611328125,6.190002441409888-17.419189453125,16.38623046875-19.81103515625,28.9376220703125-2.478759765625,13.007507324222388,1.3040771484375,25.9688720703125,9.0040283203125,35.6378173828125-7.1240234375-13.35040283203125-8.4813232421875-28.376159667965112-3.42620849609375-42.69903564453125,4-11,16-14,28-12-12-2-24,1-28,12-5.05511474609375,14.322875976566138-3.69781494140625,29.3486328125,3.42620849609375,42.69903564453125,2.22259521484375,2.7908935546875,4.76910400390625,5.3095703125,7.58856201171875,7.4732666015625.73699951171875.565612792972388,16.01434326171875,11.906921386722388,35.5555419921875,8.148132324222388,1.17022705078125-.22509765625,2.2891845703125-.500305175784888,3.37890625-.810424804691138-8.6844482421875-.085571289058862-16.9288330078125-2.68072509765625-23.94921875-6.510009765625-11.357177734375-5.678588867183862-20.914306640625-19.419067382808862-17.66778564453125-33.59112548828125Z"/>
      <path class="cls-10" d="M331.805575182481334,360.056824732531823l-11.49810791015625-10.892944335941138c-.219482421875-.207885742183862-.45941162109375-.37750244140625-.709228515625-.52362060546875-2.39508056640625,10.9412841796875,2.57232666015625,21.202697753909888,10.56207275390625,29.334228515625.2435302734375.145812988284888.47760009765625.2978515625.72650146484375.440002441409888,3.73828125,2.134704589840112,7.51812744140625,3.510131835933862,11.030517578125,4.389770507808862-7.12115478515625-4.91021728515625-11.3153076171875-12.83062744140625-10.11175537109375-22.747436523433862Z"/>
      <path class="cls-12" d="M368.353548815293834,376.834778834090685c-9.9603271484375,2.716430664066138-19.08984375-1.956665039058862-25.18316650390625-9.5439453125-3.133544921875-1.120849609375-6.14080810546875-2.738159179683862-8.87615966796875-4.876342773433862l-2.4886474609375-2.357666015625c-1.20355224609375,9.916809082027612,2.9906005859375,17.837219238277612,10.11175537109375,22.747436523433862,8.2469482421875,2.06536865234375,15.009765625,1.379272460941138,16.228759765625,1.239868164066138,3.10296630859375-.354919433597388,16.392333984375-2.213562011722388,27.11114501953125-13.481506347659888,1.00531005859375-1.056823730465112,12.67535400390625-13.772644042965112,12.41400146484375-31.754577636715112-7.4180908203125,15.380004882808862-11.98504638671875,31.960327148433862-29.31768798828125,38.026733398433862Z"/>
      <path class="cls-16" d="M300.353548815295653,348.834778834090685c-7.49127197265625,6.55487060546875-17.1748046875,9.601684570316138-27.3055419921875,10.16802978515625-3.3927001953125,3.525390625-11.54302978515625,10.3851318359375-23.34637451171875,9.930236816409888-10.3553466796875-.399169921875-20.83502197265625-6.336975097659888-25.629638671875-16.740783691409888-.2708740234375-.58770751953125-1.99041748046875-4.5115966796875-2.38623046875-9.9486083984375-3.24652099609375,14.172058105472388,6.31060791015625,27.912536621097388,17.66778564453125,33.59112548828125,7.0203857421875,3.82928466796875,15.2647705078125,6.424438476566138,23.94921875,6.510009765625,8.2022705078125-2.33416748046875,14.3914794921875-7.068969726558862,22.4615478515625-14.140258789058862-8.82684326171875,3.304443359375-18.61761474609375,3.894653320308862-28.4107666015625.630249023433862,9.79315185546875,3.264404296875,19.58392333984375,2.674194335941138,28.4107666015625-.630249023433862.61065673828125-.535095214847388,1.2293701171875-1.080078125,1.86328125-1.641906738284888,12.22406005859375-10.8345947265625,27.926452636716931-25.5899658203125,45.481445312498181-44.44439697265625,3.3277587890625-3.406860351558862,7.24822998046875-5.890380859375,11.4014892578125-7.462646484375-23.28985595703125-5.15325927734375-29.33673095703125,21.33502197265625-44.156982421873181,34.17919921875Z"/>
      <path class="cls-7" d="M335.353548815293834,307.834778834090685c-13,5-24,16-32.999999999998181,29-5.534912109375,9.05712890625-13.85601806640625,13.8076171875-23.3048095703125,16.16741943359375-1.416015625,1.34130859375-2.846923828125,2.69580078125-4.31005859375,4.0789794921875-.19775390625.252990722659888-.7708740234375.9658203125-1.690673828125,1.921630859375,10.1307373046875-.566345214840112,19.81427001953125-3.6131591796875,27.3055419921875-10.16802978515625,14.820251464841931-12.84417724609375,20.867126464841931-39.33245849609375,44.156982421873181-34.17919921875,7.996826171875-3.02728271484375,16.87255859375-2.613037109375,24.15411376953125,1.53668212890625,5.418701171875,3.088134765625,9.5423583984375,8.0029296875,11.85028076171875,13.72113037109375-6.020751953125-18.676025390625-25.93505859375-28.76605224609375-45.161376953125-22.07861328125Z"/>
      <path class="cls-4" d="M366.733919909043834,298.476685572371935c-13.50201416015625-3.679931640625-25.129150390625.661682128909888-27.55078125,1.567443847659888-8.88153076171875,3.321899414058862-14.314453125,8.72412109375-17.77777099609375,12.148132324215112-11.919921875,11.78460693359375-25.510559082029431,24.85321044921875-42.356628417966931,40.8099365234375,9.44879150390625-2.35980224609375,17.7698974609375-7.11029052734375,23.3048095703125-16.16741943359375,8.999999999998181-13,19.999999999998181-24,32.999999999998181-29,19.226318359375-6.68743896484375,39.140625,3.402587890625,45.161376953125,22.07861328125,1.41241455078125,3.49951171875,2.14715576171875,7.298828125,2.07562255859375,11.16778564453125-.04425048828125,2.39105224609375-.4046630859375,4.59149169921875-.96710205078125,6.62548828125,6.7650146484375-18.618835449215112,1.35052490234375-39.98486328125-14.8895263671875-49.22998046875Z"/>
      <path class="cls-11" d="M374.886812975450084,301.673768091906823c-2.75372314453125-1.439147949222388-5.489013671875-2.471069335941138-8.15289306640625-3.197082519534888,16.24005126953125,9.2451171875,21.654541015625,30.611145019534888,14.8895263671875,49.22998046875-.713623046875,2.5809326171875-1.7603759765625,4.88739013671875-2.985595703125,6.904052734375,8.55859375-6.544189453125,13.93115234375-16.259460449215112,17.37255859375-26.797607421875-1.57757568359375-5.274841308590112-6.76348876953125-18.63458251953125-21.12359619140625-26.139343261715112Z"/>
      <path class="cls-14" d="M396.516451647325084,329.673768091906823c-.09027099609375-.372497558597388-.253662109375-1.016906738284888-.50604248046875-1.860656738284888-3.44140625,10.538146972659888-8.81396484375,20.25341796875-17.37255859375,26.797607421875-4.344970703125,7.151611328125-10.7802734375,10.77874755859375-11.30657958984375,11.063049316409888-7.4171142578125,4.006774902340112-16.2086181640625,4.461669921875-24.160888671875,1.617065429683862,6.09332275390625,7.587280273441138,15.22283935546875,12.260375976566138,25.18316650390625,9.5439453125,17.3326416015625-6.06640625,21.89959716796875-22.646728515625,29.31768798828125-38.026733398433862-.04241943359375-2.916870117191138-.3873291015625-5.967224121097388-1.15478515625-9.13427734375Z"/>
      <path class="cls-13" d="M319.598238756700084,348.640259791121935c-1.55364990234375-.9085693359375-3.58880615234375-.633544921875-4.82830810546875.7802734375l-4.69970703125,5.360595703125c-1.25787353515625,1.434814453125-1.2724609375,3.5679931640625-.0408935546875,5.025451660159888,2.13702392578125,2.529113769527612,4.85736083984375,5.494445800777612,8.19085693359375,8.60791015625,3.52679443359375,3.294128417965112,7.24908447265625,6.751525878902612,11.94012451171875,9.559997558590112-7.98974609375-8.131530761715112-12.9571533203125-18.3929443359375-10.56207275390625-29.334228515625Z"/>
      <path class="cls-15" d="M293.353548815295653,328.834778834090685c-4,0-5-3-7-5-5.5277099609375-9.673461914058862-13.44207763671875-16.95977783203125-21.10498046875-24.16815185546875-5.6988525390625-2.23712158203125-12.84222412109375-3.89727783203125-20.435791015625-3.0299072265625-5.9271240234375.67706298828125-11.865966796875,2.883972167972388-17.22601318359375,6.3216552734375,9.35174560546875-.3985595703125,18.0791015625,2.40667724609375,25.8448486328125,9.0888671875,2.9212646484375.2318115234375,5.56036376953125.8912353515625,7.92041015625,1.7762451171875.69140625.00927734375,1.37066650390625.01129150390625,2.00152587890625.01129150390625-.630859375,0-1.31011962890625-.00201416015625-2.00152587890625-.01129150390625,7.58050537109375,2.8427734375,12.203125,8.07647705078125,13.38665771484375,9.479919433597388l9.5810546875,10.308654785152612c1.16912841796875,1.257995605472388,3.13983154296875,1.321044921875,4.38702392578125.140380859375l5.1947021484375-4.91766357421875h-.54791259765625Z"/>
      <path class="cls-6" d="M286.353548815295653,323.834778834090685c2,2,3,5,7,5h.54791259765625l1.439697265625-1.362915039058862c1.23773193359375-1.171752929691138,1.2939453125-3.118286132816138.1292724609375-4.362670898441138-1.5870361328125-1.695556640625-3.26177978515625-3.41204833984375-5.02801513671875-5.13916015625-4.76080322265625-4.6552734375-9.462646484375-8.68017578125-13.92596435546875-12.14813232421875-1.97021484375-1.5308837890625-6.00384521484375-4.0888671875-11.26788330078125-6.1552734375,7.66290283203125,7.2083740234375,15.5772705078125,14.494689941409888,21.10498046875,24.16815185546875Z"/>
    </g>
    <g>
      <path class="cls-2" d="M335.831277323273753,335.664531483616884l4.110326449699642-8.283231343964871c.834241357482824-1.681183780721767,2.548979656919983-2.744539652128879,4.425768815854099-2.744539652128879h19.419351663436828c1.924272869404376,0,3.673478085602255,1.117231036514568,4.482648953468015,2.863102905386768l3.784133121447667,8.164668090706982c1.808563232421875-.95672607421875,3.639739990234375-.223785400390625,4,.75.32586669921875.880859375-.39520263671875,2.38214111328125-2,3.0555419921875,0,0,.888885498046875,2.333343505859375.944427490234375,5.555572509765625l-.047643306494138,11.008273918909254c-.00443711713524,1.025222732241673-.806475762012269,1.869679956253094-1.830109981612623,1.926901658156567l-5.075751022646728.283737204546924c-1.111284148930281.062121379964083-2.046495689246512-.822271401131729-2.046495689246512-1.935290504974546v-1.839194786403823l-24.0555419921875-.111114501953125-.050704019169643,1.926697025068279c-.033008984726621,1.254305155918701-1.099994540745683,2.2309632147917-2.352320753645472,2.153180994944705l-4.5349759349956-.281668219944549c-1.184068355782074-.073542711328628-2.100123674201313-1.066662316010479-2.077992233738769-2.25280589959948l.238221945455734-12.76760238679708s0-2.888916015625.888885498046875-3.4444580078125c-1.597076416015625-.571807861328125-2.51318359375-1.8519287109375-2.333343505859375-2.72222900390625.207733154296875-1.005218505859375,1.988311767578125-2.000152587890625,4.111114501953125-1.3055419921875Z"/>
      <path class="cls-17" d="M339.064687822805354,336.92699312460536l3.50062453042483-7.160368357690459c.570721989908634-1.167385888446006,1.756632770629949-1.907655620540027,3.056060876489937-1.907655620540027h16.61274516587946c1.449794965472393,0,2.769322502143041.836867422243813,3.387366762592137,2.148327194419835l3.137790787517588,6.658238988147787c.189548825270322.402213360943279-.100821072261169.86562218355175-.545434184110491.870472508406237l-28.567457193526934.311644987566979c-.476084957226703.005193654080358-.790810524202243-.492926970673579-.581696745266527-.920659700310352Z"/>
      <path class="cls-17" d="M365.247088126716335,347.374245664923365c-.43360331873555-.469736928629573-.706495742848347-1.065382227930968-.770318664021033-1.701457109425974-.089798912878905-.894957984066423.069011711781059-2.015825349797524,1.382285638355825-2.147152742454637l2.959169470002962-.166666666664241s2.457497196661279-.166666666667879,2.540830529997038,1.944444444441615c0,0,.555555555554747,3-1.638888888890506,3.666666666667879h-1.864477883533254c-.72384512734061,0-1.414754426939908-.302501669681078-1.905724174277566-.834385562629905l-.702876027633465-.761449029934738Z"/>
      <path class="cls-17" d="M336.664610656605873,345.377487664896762s-.444444444445253-2.117309458219097,2.962962962963502-2.02161769207305l2.722222222222626.151247321700794s1.833333333332121.407407407408755,1.518518518518249,2.555555555554747c0,0-.068869428421749,1.294745254352165-1.66773103487867,2.339959686225484-.508322465757374.332302667793556-1.123408637751709.466183320600976-1.730300502487808.443843742756144l-1.335483959850535-.049158918765897c-1.147451622327935-.042237483030476-2.157288046972099-.82845661794272-2.407836054495419-1.949016712929733-.090409895063203-.404352529480093-.123125286187133-.889669886750198-.062352151991945-1.470812982468487Z"/>
    </g>
    <g>
      <path class="cls-8" d="M259.037874987170653,355.098389673934435c-1.041748046875.001159667972388-2.08319091796875-.01068115234375-3.12359619140625-.0306396484375l.055419921875,2.0645751953125c1.34307861328125-.50164794921875,2.32879638671875-1.247619628902612,3.06817626953125-2.033935546875Z"/>
      <path class="cls-9" d="M245.400851061389403,347.029786158309435c.20965576171875-.174133300777612,2.91400146484375-2.342102050777612,6.268798828125-1.295227050777612,2.7777099609375.866821289058862,3.91656494140625,3.287048339840112,4.09283447265625,3.678344726558862l.15179443359375,5.65484619140625c1.0404052734375.01995849609375,2.08184814453125.031799316409888,3.12359619140625.0306396484375,1.07952880859375-1.14813232421875,1.618408203125-2.38427734375,1.84979248046875-3.087951660152612.1090087890625-.331604003909888.1578369140625-.674987792972388.1529541015625-1.023986816409888l-.20098876953125-14.421875c-.10357666015625-4.973571777340112-6.0615234375-7.87481689453125-6.0615234375-7.87481689453125,1.34698486328125-1.39886474609375,1.47808837890625-3.374389648433862,1.47808837890625-3.374389648433862,1.1651611328125-.291320800784888,2.330322265625-.582580566409888,3.4954833984375-.873901367191138h7.77117919921875c1.3729248046875-.777099609375,1.243408203125-1.63189697265625.77069091796875-2.29248046875-.52691650390625-.736206054683862-1.41363525390625-1.12884521484375-2.31878662109375-1.143676757808862l-5.29052734375-.086730957034888c-1.243408203125.621643066409888-.51806640625,2.590393066409888-.51806640625,2.590393066409888l-3.9892578125.932495117183862c-.0269775390625-.5546875-.17950439453125-2.219604492183862-1.45062255859375-3.73016357421875-1.26812744140625-1.507019042965112-2.8602294921875-1.92236328125-3.47113037109375-2.07232666015625-.49310302734375-.12103271484375-3.28466796875-.80645751953125-5.6988525390625,1.03619384765625-2.1593017578125,1.648010253909888-2.44366455078125,4.1177978515625-2.48681640625,4.55908203125l-4.1964111328125-1.03619384765625v-.906616210933862c0-.758239746097388-.61468505859375-1.372863769534888-1.3729248046875-1.372863769534888h-5.6729736328125c-.7132568359375.1256103515625-1.30059814453125.6043701171875-1.50244140625,1.24334716796875-.26544189453125.84051513671875.17401123046875,1.83856201171875,1.08795166015625,2.279541015625,0,0,9.37725830078125-.621704101558862,11.7086181640625,1.088012695316138,0,0-.07769775390625,1.683715820308862,1.1397705078125,3.52294921875-5.59521484375,2.331359863277612-6.11334228515625,7.926574707027612-6.11334228515625,7.926574707027612l-.1414794921875,12.73443603515625c-.01165771484375,1.05169677734375.1561279296875,2.10784912109375.56329345703125,3.07763671875,1.6708984375,3.97955322265625,4.96624755859375,4.34124755859375,4.96624755859375,4.34124755859375l-.0379638671875-2.69378662109375c-1.4114990234375-.50335693359375-2.797119140625-1.03656005859375-4.144287109375-1.603759765625,1.34716796875.56719970703125,2.7327880859375,1.10040283203125,4.144287109375,1.603759765625l-.065673828125-4.662963867183862c.25311279296875-.639282226566138.80889892578125-1.782531738284888,1.96868896484375-2.745788574222388Z"/>
      <rect class="cls-5" x="246.437035679340624" y="349.568362345391506" width="6.890458819292689" height="15.438772392102692" rx="3.222222222222626" ry="3.222222222222626"/>
      <circle class="cls-17" cx="249.538725401343982" cy="325.077072119212971" r="3.590321647039672"/>
    </g>
  </g>
  <g>
    <text class="cls-22" transform="translate(167.066333029419184 454.481743706597626)"><tspan x="0" y="0">O</tspan><tspan class="cls-24" x="50.39892578125" y="0">n</tspan><tspan x="92.01904296875" y="0">eRide</tspan></text>
    <text class="cls-23" transform="translate(193.7596435546875 490.514641655816376)"><tspan class="cls-20" x="0" y="0">Y</tspan><tspan class="cls-21" x="12.73291015625" y="0">our Ridi</tspan><tspan class="cls-18" x="97.93310546875" y="0">n</tspan><tspan class="cls-21" x="112.85546875" y="0">g </tspan><tspan class="cls-19" x="133.466796875" y="0">P</tspan><tspan class="cls-21" x="148.9091796875" y="0">a</tspan><tspan class="cls-26" x="161.8896484375" y="0">r</tspan><tspan class="cls-1" x="170.96484375" y="0">t</tspan><tspan class="cls-25" x="179.7919921875" y="0">n</tspan><tspan class="cls-21" x="194.71484375" y="0">er</tspan></text>
  </g>
</svg>